<?xml version="1.0" encoding="UTF-8" standalone="no"?>
<!-- Created with Inkscape (http://www.inkscape.org/) -->

<svg
   xmlns="http://www.w3.org/2000/svg"
   version="1.1"
   width="750"
   height="375"
   id="UM">
  <rect
     id="rect"
     x="0"
     y="0"
     width="750"
     height="375"
     fill="#7d3a40" />
  <path
     id="logo"
     fill="white"
     d="m 285.04181,144.159 -70.97287,41.3185 c -12.88463,7.43912 -24.21513,-12.12725 -11.32701,-19.56813 l 70.9815,-41.30287 c 12.90038,-7.44775 24.19063,12.12075 11.31838,19.5525 z m -183.45212,-19.31288 71.76875,40.67138 c 12.904,7.45062 1.60162,27.03237 -11.26825,19.60237 L 90.331058,144.43275 c -12.89175,-7.44313 -1.621,-27.02313 11.258632,-19.58663 z m 74.99875,169.02875 -0.0125,-82.54725 c 0,-6.24962 5.07687,-11.30087 11.30975,-11.30087 6.2415,0 11.3,5.05987 11.3,11.30112 l -0.0125,82.54713 c 0,6.23262 -5.0415,11.30037 -11.2915,11.30025 -6.2415,0 -11.30125,-5.05963 -11.30125,-11.30038 z m -86.619882,-63.66762 34.460502,-19.5645 c 12.87713,-7.43538 24.18938,12.14125 11.2915,19.58937 l -34.469,19.54838 C 88.362058,257.22312 77.086438,237.64562 89.968558,230.20725 z m 183.225132,20.21812 -33.56088,-20.24212 c -12.88088,-7.43688 -1.55275,-27.004 11.34038,-19.56063 l 33.55225,20.25838 c 12.86862,7.43 1.57099,26.99425 -11.33175,19.54437 z m -73.96,-169.300622 0.0125,39.627122 c 0,6.24938 -5.07688,11.301 -11.30975,11.301 -6.2415,0 -11.30138,-5.05987 -11.30138,-11.301 l 0.0125,-39.627122 c 0,-6.2325 5.0415,-11.3 11.2915,-11.3 6.24138,0 11.3,5.05862 11.3,11.3 z" />
</svg>
