<?xml version="1.0" encoding="utf-8"?>
<!-- Generator: Adobe Illustrator 28.0.0, SVG Export Plug-In . SVG Version: 6.00 Build 0)  -->
<svg version="1.1" id="Camada_1" xmlns="http://www.w3.org/2000/svg" xmlns:xlink="http://www.w3.org/1999/xlink" x="0px" y="0px"
	 viewBox="0 0 595.28 701.89" style="enable-background:new 0 0 595.28 701.89;" xml:space="preserve">
<style type="text/css">
	.st0{fill:#004169;}
	.st1{fill:#0091CF;}
</style>
<g>
	<g>
		<path class="st0" f="#fffff" d="M297.08,256.07l68.81-68.25l-68.52-69.27l-69.05,69.31l68.75,68.19L297.08,256.07z M296.98,241.49
			l-53.69-53.81l54.17-54.08l53.58,53.52L296.98,241.49z"/>
		<polygon class="st1" points="297.46,147.57 257.38,187.83 297.04,227.45 337.1,187.23 		"/>
		<polygon class="st1" points="155.3,263.06 211.99,263.03 211.85,402.85 246.04,436.76 348.36,436.72 382.22,402.81 382.07,263.05 
			438.79,262.99 438.95,233.28 395.45,233.18 352.92,275.57 352.95,407.31 241.11,407.31 241.14,275.61 198.61,233.22 
			155.13,233.32 		"/>
		<path class="st0" f="#ffffff" d="M191.66,282.63l-0.1,129.25l45.47,45.62l120.01-0.04l45.47-45.62l-0.1-129.28l57.51,0l0.14-69.38l-73.16,0.03
			l-55.04,54.84l-0.09,118.94l-69.46,0.04l-0.09-118.94l-55.04-54.84l-73.14-0.03l0.13,69.42L191.66,282.63z M202.15,223.42
			l49.17,48.86l0.41,125.09l90.61-0.04l0.41-125.09l49.17-48.86l57.02,0.22l0.03,49.09l-57.19,0.01l0,134.91l-39.51,39.37
			l-110.47,0.04l-39.51-39.37l0.01-134.95l-57.01-0.01l-0.01-49.05L202.15,223.42z"/>
	</g>
	<g>
		<g>
			<path class="st0" f="#ffffff" d="M28.16,632.66v16.37c0,1.87-0.43,3.51-1.29,4.91c-0.86,1.41-2.11,2.49-3.74,3.23
				c-1.62,0.75-3.55,1.13-5.77,1.13c-3.35,0-5.95-0.83-7.81-2.5c-1.85-1.67-2.78-3.95-2.78-6.84v-16.3h5.51v15.48
				c0,1.95,0.4,3.38,1.21,4.29c0.81,0.91,2.15,1.37,4.01,1.37c1.8,0,3.11-0.46,3.92-1.38c0.82-0.92,1.22-2.35,1.22-4.31v-15.45
				H28.16z"/>
			<path class="st0" f="#ffffff" d="M61.3,657.95h-7.02l-11.33-19.13h-0.15c0.22,3.38,0.33,5.79,0.33,7.23v11.9h-4.94v-25.29h6.97l11.32,18.94
				h0.12c-0.18-3.29-0.27-5.61-0.27-6.97v-11.97h4.97V657.95z"/>
			<path class="st0" f="#ffffff" d="M71.51,657.95v-25.29h5.53v25.29H71.51z"/>
			<path class="st0" f="#ffffff" d="M102.1,632.66h5.58l-8.86,25.29h-6.02l-8.84-25.29h5.58l4.9,15.05c0.28,0.89,0.56,1.92,0.85,3.11
				c0.29,1.18,0.47,2,0.54,2.46c0.13-1.06,0.58-2.92,1.34-5.57L102.1,632.66z"/>
			<path class="st0" f="#ffffff" d="M129.6,657.95h-15v-25.29h15v4.39h-9.48v5.56h8.82V647h-8.82v6.52h9.48V657.95z"/>
			<path class="st0" f="#ffffff" d="M144.22,648.24v9.7h-5.53v-25.29h7.6c3.54,0,6.16,0.63,7.85,1.88c1.7,1.25,2.55,3.15,2.55,5.7
				c0,1.49-0.42,2.81-1.27,3.97c-0.84,1.16-2.03,2.07-3.57,2.73c3.92,5.69,6.47,9.36,7.66,11.02h-6.13l-6.22-9.7H144.22z
				 M144.22,643.88H146c1.74,0,3.03-0.28,3.87-0.85c0.83-0.56,1.25-1.45,1.25-2.66c0-1.2-0.43-2.05-1.28-2.56
				c-0.84-0.51-2.16-0.76-3.95-0.76h-1.67V643.88z"/>
			<path class="st0" f="#ffffff" d="M181.81,650.92c0,2.28-0.84,4.08-2.54,5.4c-1.69,1.31-4.04,1.97-7.06,1.97c-2.78,0-5.24-0.51-7.38-1.52
				v-4.98c1.75,0.76,3.24,1.3,4.46,1.61c1.22,0.31,2.33,0.46,3.34,0.46c1.22,0,2.15-0.22,2.79-0.67c0.65-0.45,0.97-1.12,0.97-2.01
				c0-0.5-0.14-0.94-0.43-1.32c-0.28-0.39-0.7-0.76-1.26-1.12c-0.55-0.36-1.68-0.93-3.37-1.71c-1.59-0.73-2.79-1.42-3.58-2.09
				c-0.79-0.67-1.43-1.45-1.9-2.33c-0.48-0.89-0.71-1.93-0.71-3.12c0-2.24,0.78-3.99,2.34-5.28c1.56-1.28,3.72-1.92,6.48-1.92
				c1.35,0,2.64,0.16,3.87,0.47c1.23,0.31,2.51,0.75,3.86,1.31l-1.78,4.17c-1.39-0.55-2.54-0.94-3.45-1.16
				c-0.91-0.22-1.8-0.33-2.68-0.33c-1.05,0-1.85,0.24-2.41,0.71s-0.83,1.09-0.83,1.85c0,0.47,0.11,0.89,0.34,1.24
				c0.23,0.35,0.58,0.69,1.08,1.02c0.49,0.33,1.66,0.92,3.5,1.77c2.43,1.13,4.1,2.26,5,3.4
				C181.36,647.88,181.81,649.28,181.81,650.92z"/>
			<path class="st0" f="#ffffff" d="M190.22,657.95v-25.29h5.53v25.29H190.22z"/>
			<path class="st0" f="#ffffff" d="M227.57,645.06c0,4.16-1.22,7.35-3.66,9.57c-2.44,2.22-5.97,3.32-10.58,3.32h-7.38v-25.29h8.18
				c4.26,0,7.55,1.09,9.91,3.27C226.4,638.11,227.57,641.15,227.57,645.06z M221.83,645.2c0-5.43-2.47-8.15-7.41-8.15h-2.94v16.47
				h2.37C219.18,653.52,221.83,650.75,221.83,645.2z"/>
			<path class="st0" f="#ffffff" d="M252.56,657.95l-1.89-6.02h-9.5l-1.89,6.02h-5.95l9.19-25.4h6.75l9.23,25.4H252.56z M249.35,647.43
				c-1.74-5.45-2.73-8.54-2.95-9.26c-0.22-0.72-0.37-1.28-0.47-1.7c-0.39,1.48-1.52,5.13-3.36,10.95H249.35z"/>
			<path class="st0" f="#ffffff" d="M287.06,645.06c0,4.16-1.22,7.35-3.66,9.57c-2.44,2.22-5.97,3.32-10.58,3.32h-7.38v-25.29h8.18
				c4.26,0,7.55,1.09,9.91,3.27C285.88,638.11,287.06,641.15,287.06,645.06z M281.32,645.2c0-5.43-2.47-8.15-7.41-8.15h-2.94v16.47
				h2.37C278.66,653.52,281.32,650.75,281.32,645.2z"/>
			<path class="st0" f="#ffffff" d="M311.11,657.95h-15v-25.29h15v4.39h-9.48v5.56h8.82V647h-8.82v6.52h9.48V657.95z"/>
			<path class="st0" f="#ffffff" d="M338.76,657.95h-5.44v-25.29h14.93v4.39h-9.49v6.52h8.84v4.38h-8.84V657.95z"/>
			<path class="st0" f="#ffffff" d="M373.42,657.95h-15v-25.29h15v4.39h-9.48v5.56h8.82V647h-8.82v6.52h9.48V657.95z"/>
			<path class="st0" f="#ffffff" d="M404.83,645.06c0,4.16-1.22,7.35-3.66,9.57c-2.44,2.22-5.97,3.32-10.58,3.32h-7.38v-25.29h8.18
				c4.26,0,7.55,1.09,9.91,3.27C403.65,638.11,404.83,641.15,404.83,645.06z M399.09,645.2c0-5.43-2.47-8.15-7.41-8.15h-2.94v16.47
				h2.37C396.43,653.52,399.09,650.75,399.09,645.2z"/>
			<path class="st0" f="#ffffff" d="M428.88,657.95h-15v-25.29h15v4.39h-9.48v5.56h8.82V647h-8.82v6.52h9.48V657.95z"/>
			<path class="st0" f="#ffffff" d="M444.2,648.24v9.7h-5.53v-25.29h7.6c3.54,0,6.16,0.63,7.85,1.88c1.7,1.25,2.55,3.15,2.55,5.7
				c0,1.49-0.42,2.81-1.27,3.97c-0.84,1.16-2.03,2.07-3.57,2.73c3.92,5.69,6.47,9.36,7.66,11.02h-6.13l-6.22-9.7H444.2z
				 M444.2,643.88h1.78c1.74,0,3.03-0.28,3.87-0.85c0.83-0.56,1.25-1.45,1.25-2.66c0-1.2-0.43-2.05-1.28-2.56
				c-0.84-0.51-2.16-0.76-3.95-0.76h-1.67V643.88z"/>
			<path class="st0" f="#ffffff" d="M483.21,657.95l-1.89-6.02h-9.5l-1.89,6.02h-5.95l9.19-25.4h6.75l9.23,25.4H483.21z M480,647.43
				c-1.74-5.45-2.73-8.54-2.95-9.26c-0.22-0.72-0.37-1.28-0.47-1.7c-0.39,1.48-1.52,5.13-3.36,10.95H480z"/>
			<path class="st0" f="#ffffff" d="M496.08,657.95v-25.29h5.53v20.86h10.56v4.43H496.08z"/>
			<path class="st0" f="#ffffff" d="M555.1,645.06c0,4.16-1.22,7.35-3.66,9.57c-2.44,2.22-5.97,3.32-10.58,3.32h-7.38v-25.29h8.18
				c4.26,0,7.55,1.09,9.91,3.27C553.92,638.11,555.1,641.15,555.1,645.06z M549.36,645.2c0-5.43-2.47-8.15-7.41-8.15h-2.94v16.47
				h2.37C546.7,653.52,549.36,650.75,549.36,645.2z"/>
			<path class="st0" f="#ffffff" d="M587.79,645.27c0,4.18-1.07,7.4-3.2,9.65c-2.14,2.25-5.2,3.37-9.2,3.37c-3.99,0-7.05-1.13-9.19-3.37
				c-2.14-2.25-3.2-5.48-3.2-9.69s1.07-7.43,3.21-9.65c2.15-2.22,5.22-3.33,9.22-3.33c4,0,7.06,1.12,9.18,3.35
				C586.74,637.85,587.79,641.07,587.79,645.27z M568.78,645.27c0,2.83,0.55,4.95,1.65,6.38c1.11,1.43,2.76,2.14,4.95,2.14
				c4.41,0,6.61-2.85,6.61-8.53c0-5.7-2.19-8.55-6.57-8.55c-2.2,0-3.86,0.72-4.97,2.15C569.34,640.31,568.78,642.44,568.78,645.27z"
				/>
		</g>
		<g>
			<path class="st0" f="#ffffff" d="M21.62,702.37H6.59v-25.34h15.03v4.4h-9.49v5.57h8.84v4.4h-8.84v6.54h9.49V702.37z"/>
			<path class="st0" f="#ffffff" d="M46.12,695.33c0,2.29-0.84,4.09-2.54,5.41c-1.7,1.32-4.05,1.98-7.07,1.98c-2.79,0-5.25-0.51-7.39-1.53v-4.99
				c1.75,0.76,3.25,1.3,4.47,1.61c1.22,0.31,2.34,0.47,3.35,0.47c1.22,0,2.15-0.22,2.79-0.67c0.65-0.45,0.97-1.12,0.97-2.01
				c0-0.5-0.14-0.94-0.43-1.32c-0.28-0.39-0.7-0.76-1.26-1.12c-0.55-0.36-1.68-0.93-3.38-1.71c-1.59-0.73-2.79-1.43-3.59-2.1
				c-0.8-0.67-1.43-1.45-1.91-2.34c-0.48-0.89-0.71-1.93-0.71-3.12c0-2.24,0.78-4,2.35-5.29c1.57-1.28,3.73-1.92,6.49-1.92
				c1.36,0,2.65,0.16,3.88,0.47c1.23,0.31,2.52,0.75,3.87,1.32l-1.79,4.18c-1.39-0.56-2.54-0.94-3.45-1.16
				c-0.91-0.22-1.8-0.33-2.69-0.33c-1.05,0-1.85,0.24-2.41,0.71s-0.84,1.09-0.84,1.85c0,0.47,0.11,0.89,0.34,1.24
				c0.23,0.35,0.58,0.69,1.08,1.02c0.5,0.33,1.66,0.92,3.51,1.78c2.44,1.13,4.11,2.27,5.01,3.4
				C45.68,692.28,46.12,693.68,46.12,695.33z"/>
			<path class="st0" f="#ffffff" d="M64.58,702.37h-5.53V681.5h-7.09v-4.47h19.71v4.47h-7.09V702.37z"/>
			<path class="st0" f="#ffffff" d="M95.32,702.37l-1.89-6.03h-9.52l-1.89,6.03h-5.96l9.21-25.44h6.76l9.25,25.44H95.32z M92.1,691.83
				c-1.75-5.46-2.74-8.55-2.96-9.27c-0.22-0.72-0.37-1.28-0.47-1.7c-0.39,1.48-1.52,5.14-3.37,10.97H92.1z"/>
			<path class="st0" f="#ffffff" d="M129.87,689.45c0,4.17-1.23,7.36-3.67,9.58c-2.44,2.22-5.98,3.33-10.6,3.33h-7.39v-25.34h8.19
				c4.26,0,7.57,1.09,9.93,3.28C128.69,682.49,129.87,685.54,129.87,689.45z M124.12,689.59c0-5.44-2.48-8.16-7.42-8.16h-2.95v16.5
				h2.37C121.46,697.93,124.12,695.15,124.12,689.59z"/>
			<path class="st0" f="#ffffff" d="M162.62,689.66c0,4.19-1.07,7.42-3.21,9.67c-2.14,2.25-5.21,3.38-9.22,3.38c-4,0-7.07-1.13-9.21-3.38
				c-2.14-2.26-3.21-5.49-3.21-9.71s1.07-7.44,3.22-9.66c2.15-2.22,5.23-3.34,9.24-3.34c4.01,0,7.07,1.12,9.2,3.36
				C161.57,682.23,162.62,685.46,162.62,689.66z M143.58,689.66c0,2.83,0.55,4.96,1.66,6.39c1.11,1.43,2.76,2.15,4.96,2.15
				c4.42,0,6.63-2.85,6.63-8.54c0-5.71-2.19-8.56-6.59-8.56c-2.2,0-3.87,0.72-4.98,2.16C144.14,684.7,143.58,686.83,143.58,689.66z"
				/>
			<path class="st0" f="#ffffff" d="M206.49,689.45c0,4.17-1.23,7.36-3.67,9.58c-2.44,2.22-5.98,3.33-10.6,3.33h-7.39v-25.34h8.19
				c4.26,0,7.57,1.09,9.93,3.28C205.31,682.49,206.49,685.54,206.49,689.45z M200.74,689.59c0-5.44-2.48-8.16-7.42-8.16h-2.95v16.5
				h2.37C198.08,697.93,200.74,695.15,200.74,689.59z"/>
			<path class="st0" f="#ffffff" d="M239.24,689.66c0,4.19-1.07,7.42-3.21,9.67c-2.14,2.25-5.21,3.38-9.22,3.38c-4,0-7.07-1.13-9.21-3.38
				c-2.14-2.26-3.21-5.49-3.21-9.71s1.07-7.44,3.22-9.66c2.15-2.22,5.23-3.34,9.24-3.34s7.07,1.12,9.2,3.36
				C238.19,682.23,239.24,685.46,239.24,689.66z M220.2,689.66c0,2.83,0.55,4.96,1.66,6.39c1.11,1.43,2.76,2.15,4.96,2.15
				c4.42,0,6.63-2.85,6.63-8.54c0-5.71-2.19-8.56-6.59-8.56c-2.2,0-3.87,0.72-4.98,2.16C220.76,684.7,220.2,686.83,220.2,689.66z"/>
			<path class="st0" f="#ffffff" d="M267,692.64v9.72h-5.54v-25.34h7.61c3.55,0,6.17,0.63,7.87,1.88c1.71,1.25,2.56,3.16,2.56,5.71
				c0,1.49-0.42,2.82-1.27,3.98c-0.84,1.16-2.04,2.07-3.58,2.73c3.92,5.7,6.48,9.37,7.67,11.04h-6.14l-6.23-9.72H267z M267,688.28
				h1.79c1.75,0,3.04-0.28,3.87-0.85c0.83-0.56,1.25-1.45,1.25-2.67c0-1.2-0.43-2.05-1.28-2.56c-0.84-0.51-2.17-0.76-3.95-0.76H267
				V688.28z"/>
			<path class="st0" f="#ffffff" d="M289.25,702.37v-25.34h5.54v25.34H289.25z"/>
			<path class="st0" f="#ffffff" d="M328.69,689.66c0,4.19-1.07,7.42-3.21,9.67c-2.14,2.25-5.21,3.38-9.22,3.38c-4,0-7.07-1.13-9.21-3.38
				c-2.14-2.26-3.21-5.49-3.21-9.71s1.07-7.44,3.22-9.66c2.15-2.22,5.23-3.34,9.24-3.34c4.01,0,7.07,1.12,9.2,3.36
				C327.64,682.23,328.69,685.46,328.69,689.66z M309.65,689.66c0,2.83,0.55,4.96,1.66,6.39c1.11,1.43,2.76,2.15,4.96,2.15
				c4.42,0,6.63-2.85,6.63-8.54c0-5.71-2.19-8.56-6.59-8.56c-2.2,0-3.87,0.72-4.98,2.16C310.21,684.7,309.65,686.83,309.65,689.66z"
				/>
			<path class="st0" f="#ffffff" d="M372.57,689.45c0,4.17-1.23,7.36-3.67,9.58c-2.44,2.22-5.98,3.33-10.6,3.33h-7.39v-25.34h8.19
				c4.26,0,7.57,1.09,9.93,3.28C371.39,682.49,372.57,685.54,372.57,689.45z M366.82,689.59c0-5.44-2.48-8.16-7.42-8.16h-2.95v16.5
				h2.37C364.15,697.93,366.82,695.15,366.82,689.59z"/>
			<path class="st0" f="#ffffff" d="M396.65,702.37h-15.03v-25.34h15.03v4.4h-9.49v5.57H396v4.4h-8.84v6.54h9.49V702.37z"/>
			<path class="st0" f="#ffffff" d="M416.18,703.01c-1.25,0-2.34-0.13-3.26-0.38v-4.47c0.95,0.23,1.82,0.35,2.61,0.35c1.21,0,2.08-0.37,2.61-1.1
				c0.52-0.73,0.78-1.88,0.78-3.44v-16.95h5.54v16.92c0,2.96-0.7,5.21-2.09,6.76C420.96,702.24,418.9,703.01,416.18,703.01z"/>
			<path class="st0" f="#ffffff" d="M450.65,702.37l-1.89-6.03h-9.52l-1.89,6.03h-5.96l9.21-25.44h6.76l9.25,25.44H450.65z M447.43,691.83
				c-1.75-5.46-2.74-8.55-2.96-9.27c-0.22-0.72-0.37-1.28-0.47-1.7c-0.39,1.48-1.52,5.14-3.37,10.97H447.43z"/>
			<path class="st0" f="#ffffff" d="M486.7,702.37h-7.03l-11.35-19.17h-0.15c0.22,3.39,0.33,5.8,0.33,7.24v11.93h-4.95v-25.34h6.98l11.34,18.98
				h0.12c-0.18-3.3-0.27-5.62-0.27-6.99v-11.99h4.98V702.37z"/>
			<path class="st0" f="#ffffff" d="M511.95,702.37h-15.03v-25.34h15.03v4.4h-9.49v5.57h8.84v4.4h-8.84v6.54h9.49V702.37z"/>
			<path class="st0" f="#ffffff" d="M521.05,702.37v-25.34h5.54v25.34H521.05z"/>
			<path class="st0" f="#ffffff" d="M542.35,692.64v9.72h-5.54v-25.34h7.61c3.55,0,6.17,0.63,7.87,1.88c1.71,1.25,2.56,3.16,2.56,5.71
				c0,1.49-0.42,2.82-1.27,3.98c-0.84,1.16-2.04,2.07-3.58,2.73c3.92,5.7,6.48,9.37,7.67,11.04h-6.14l-6.23-9.72H542.35z
				 M542.35,688.28h1.79c1.75,0,3.04-0.28,3.87-0.85c0.83-0.56,1.25-1.45,1.25-2.67c0-1.2-0.43-2.05-1.28-2.56
				c-0.84-0.51-2.17-0.76-3.95-0.76h-1.67V688.28z"/>
			<path class="st0" f="#ffffff" d="M588.29,689.66c0,4.19-1.07,7.42-3.21,9.67c-2.14,2.25-5.21,3.38-9.22,3.38c-4,0-7.07-1.13-9.21-3.38
				c-2.14-2.26-3.21-5.49-3.21-9.71s1.07-7.44,3.22-9.66c2.15-2.22,5.23-3.34,9.24-3.34s7.07,1.12,9.2,3.36
				C587.23,682.23,588.29,685.46,588.29,689.66z M569.24,689.66c0,2.83,0.55,4.96,1.66,6.39c1.11,1.43,2.76,2.15,4.96,2.15
				c4.42,0,6.63-2.85,6.63-8.54c0-5.71-2.19-8.56-6.59-8.56c-2.2,0-3.87,0.72-4.98,2.16C569.8,684.7,569.24,686.83,569.24,689.66z"
				/>
		</g>
	</g>
	<g>
		<path class="st0" f="#ffffff" d="M122.96,493.18l-31.88-0.08v68.67c0,19.83-10.47,28.46-26.25,28.46c-15.79,0-26.25-8.63-26.25-24.42
			c0.01-74.17-0.01-73.57,0-72.62c-1.48,0-11.75-0.02-12.06-0.02H6.69v14.12h4.74c0.32-0.28,3.9,1.04,3.9,3.51v56.58
			c0,25.08,19.69,42.34,49.66,42.34c29.62,0,49.31-17.25,49.31-42.34v-56.58c0-2.24,1.21-3.05,2.29-3.34c0.71-0.19,1-0.15,1.61-0.17
			c0.3-0.01,4.75,0,4.75,0V493.18z"/>
		<path class="st0" f="#ffffff" d="M255.77,493.19l-36.39,0.03v14.21c0,0,1.65,0,4.66,0s2.78,2.46,2.78,2.46s0.14,60.93,0.11,61.87
			c0,0-75.38-76.05-77.15-77.82c-0.2-0.1-0.82-0.77-1.51-0.77c-0.75,0.01,0.75-0.02-1.28-0.02c-0.82,0-0.47,0.01-0.94,0.03
			l-12.98-0.05v14.5h5.31c0,0,3.25-0.45,3.25,3.93c0,13.12-0.09,78.76-0.09,81.07c0,1.87-4.02,2.18-5.87,2.22
			c-0.7,0.01-2.62-0.02-2.62-0.02v14.65h29.88V592.1c-0.09-1.43-0.2-54.12-0.35-54.69c0,0,71.47,72.39,71.9,72.38l12.82-0.02
			c-0.05-7.1-0.08-27.41-0.1-47.83c-0.02-24.62-0.03-49.38-0.03-51.3c0-3.24,2.25-3.07,4.24-3.07h4.54L255.77,493.19z"/>
		<path class="st0" f="#ffffff" d="M347.38,594.91l0.04-2.93v-28.56h0.64c0.36,0,1.1,0.02,1.44,0.04c8.01,7.52,44.08,46.89,42.4,44.85
			c1.06,0.82,2.37,1.36,3.61,1.37c4.44,0.04,21.99-0.03,22.06-0.04c0.01-0.15,0.01-0.39,0.01-0.53c0.01-1.57,0.02-10.75-0.11-14.16
			c-1.11,0.02-8.8,0.03-9.09-0.03c-3.56,0-32.4-32.18-33.51-33.33c0,0,0.88,0.24,2.18-0.04c11.33-2.14,24.43-8.95,29.1-28.06
			c0.51-2.1,0.6-7.5,0.6-7.5c0.11-5.37-2.56-16.19-10.36-24c-5.53-5.54-13.81-8.65-22.01-8.65l-17.22-0.08h-38.67v14.52
			c2.29-0.01,4.26-0.03,5.36,0c2.82,0.07,3.02,2.23,3.18,4.24l-0.34,81.65c-0.12-0.3-0.4,0.24-0.86,0.65
			c-0.73,0.65-1.63,0.68-1.96,0.67l-5.66,0v14.83l29.15-0.08V594.91z M347.43,507.95h13.02c8.24,0,15.32,0.89,19.28,4.12
			c3.96,3.23,6.73,7.99,6.73,13.97c0,2.91-0.39,6.85-1.48,9.22c-3.42,7.42-11.84,10.23-15.91,10.23c0,0-15.77-0.06-21.63-0.07
			V507.95z"/>
		<path class="st0" f="#ffffff" d="M427.3,594.97v14.55h38.98v-14.55h-6.57c0,0-1.77,0.12-1.88-2.25c-0.11-2.37,0.11-81.15,0-83.27
			s2.24-1.7,2.24-1.7h6.09v-14.71h-38.52v14.71h6.69c0,0,1.8,0.01,1.76,1.87c-0.04,1.86-0.14,80.9,0,83.27
			c0.14,2.37-2.31,2.08-2.31,2.08H427.3z"/>
		<path class="st0" f="#ffffff" d="M267.09,594.97v14.55h38.98v-14.55h-6.57c0,0-1.77,0.12-1.88-2.25c-0.11-2.37,0.11-81.15,0-83.27
			s2.24-1.7,2.24-1.7h6.09v-14.71h-38.52v14.71h6.69c0,0,1.8,0.01,1.76,1.87c-0.04,1.86-0.14,80.9,0,83.27s-2.31,2.08-2.31,2.08
			H267.09z"/>
		<path class="st0" f="#ffffff" d="M529.95,492.37c-32.94,0-58.74,25.45-58.74,57.93c0,33.94,25.25,59.54,58.74,59.54
			c33.48,0,58.73-25.6,58.73-59.54C588.68,517.81,562.89,492.37,529.95,492.37z M529.95,591.06c-21.14,0-37.7-17.91-37.7-40.77
			c0-21.96,16.56-39.15,37.7-39.15c21.14,0,37.7,17.2,37.7,39.15C567.66,573.16,551.09,591.06,529.95,591.06z"/>
	</g>
</g>
</svg>
